<?xml version="1.0" standalone="no"?>
<!DOCTYPE svg PUBLIC "-//W3C//DTD SVG 20010904//EN"
 "http://www.w3.org/TR/2001/REC-SVG-20010904/DTD/svg10.dtd">
<svg version="1.0" xmlns="http://www.w3.org/2000/svg"
 width="80.000000pt" height="77.000000pt" viewBox="0 0 80.000000 77.000000"
 preserveAspectRatio="xMidYMid meet">

<g transform="translate(0.000000,77.000000) scale(0.100000,-0.100000)"
fill="#000000" stroke="none">
<path d="M377 751 c-15 -5 -11 -9 18 -20 20 -7 34 -15 32 -17 -2 -3 -29 4 -58
16 -74 28 -76 24 -4 -10 63 -30 64 -41 2 -15 -56 23 -58 16 -2 -11 55 -26 46
-33 -12 -9 -56 24 -53 17 7 -15 64 -34 62 -39 -6 -10 -26 11 -49 19 -51 17 -2
-3 26 -17 62 -32 36 -16 63 -30 60 -33 -2 -3 -27 5 -54 17 -72 31 -76 24 -6
-9 69 -33 61 -40 -11 -10 -26 11 -49 19 -51 17 -2 -2 24 -16 57 -31 71 -32 80
-44 13 -17 -82 32 -90 32 -28 1 52 -27 48 -33 -12 -14 -11 3 -8 0 6 -9 l24
-14 -29 -7 c-16 -4 -31 -11 -34 -15 -3 -4 -53 -30 -111 -59 -59 -29 -112 -59
-120 -68 -7 -8 11 -1 40 17 56 35 79 37 221 20 48 -6 74 -4 105 7 39 15 140
101 130 111 -3 3 -12 -5 -20 -16 -14 -19 -24 -21 -105 -20 -105 1 -97 17 13
25 43 3 64 8 55 13 -7 5 22 8 72 8 65 -1 77 -3 51 -9 -30 -7 -131 -93 -131
-111 0 -4 16 -10 35 -13 21 -4 39 -16 46 -28 11 -20 13 -20 24 -5 7 9 21 17
32 17 11 0 26 7 33 15 7 8 27 17 46 21 19 3 34 10 34 16 0 5 5 6 11 3 6 -4 8
-12 6 -19 -3 -6 2 -18 11 -25 13 -13 14 -10 8 30 -20 129 -137 253 -271 287
-62 16 -118 21 -138 13z m40 -7 c-3 -3 -12 -4 -19 -1 -8 3 -5 6 6 6 11 1 17
-2 13 -5z m243 -213 c0 -5 3 -18 6 -28 6 -15 4 -16 -7 -5 -7 6 -26 12 -41 12
-29 0 -38 14 -15 23 21 9 57 7 57 -2z m46 0 c-4 -5 0 -12 6 -14 8 -3 6 -6 -4
-6 -18 -1 -24 10 -11 22 9 10 15 8 9 -2z m-136 -51 c0 -5 -5 -10 -11 -10 -5 0
-7 5 -4 10 3 6 8 10 11 10 2 0 4 -4 4 -10z m74 -16 c25 -10 19 -21 -15 -28
-38 -7 -54 1 -38 20 12 15 28 18 53 8z"/>
<path d="M446 415 c-11 -8 -15 -15 -9 -15 6 0 16 7 23 15 16 19 11 19 -14 0z"/>
<path d="M770 365 c-14 -8 -22 -14 -18 -15 10 0 -22 -90 -33 -91 -31 -5 -69
-20 -69 -28 0 -3 -14 -15 -30 -24 -29 -18 -30 -18 -36 0 -15 47 -25 63 -50 79
-25 17 -28 17 -55 2 -27 -16 -29 -16 -39 0 -9 15 -10 14 -5 -4 3 -11 -4 -42
-15 -67 -11 -25 -22 -65 -25 -88 -2 -23 -7 -44 -10 -47 -4 -4 -48 -9 -98 -12
l-92 -6 115 -7 c63 -4 126 -6 140 -5 14 0 41 1 60 0 26 -1 31 2 20 9 -11 7 -6
8 17 4 26 -5 41 0 78 25 42 29 125 121 125 139 0 5 9 18 19 30 16 19 39 107
29 116 -2 2 -14 -3 -28 -10z m-280 -183 c-7 -3 -19 3 -28 13 -16 15 -15 16 12
4 15 -7 23 -15 16 -17z m2 -44 c-7 -7 -12 -8 -12 -2 0 14 12 26 19 19 2 -3 -1
-11 -7 -17z"/>
<path d="M34 334 c-8 -20 -13 -41 -10 -47 2 -7 5 -3 5 8 1 18 2 18 14 -4 6
-13 15 -22 18 -20 3 2 13 -4 23 -13 23 -23 47 -23 73 1 13 12 30 17 49 15 25
-4 26 -3 9 6 -16 8 -11 9 20 5 53 -7 155 20 178 46 23 28 22 38 -5 31 -13 -3
-17 -7 -10 -10 10 -3 10 -7 1 -18 -13 -16 -39 -19 -39 -4 0 6 6 10 13 10 8 0
7 3 -3 10 -11 7 -17 4 -22 -9 -7 -20 -63 -53 -72 -44 -10 11 5 23 29 23 13 0
26 4 29 9 4 5 -3 7 -14 4 -11 -3 -20 0 -20 6 0 20 -29 11 -36 -11 -5 -13 -7
-26 -6 -30 1 -5 -3 -8 -8 -8 -13 0 -13 23 0 36 6 6 -15 10 -60 11 -38 1 -85 9
-105 17 l-36 15 -15 -35z m36 5 c0 -6 -4 -7 -10 -4 -5 3 -10 11 -10 16 0 6 5
7 10 4 6 -3 10 -11 10 -16z m160 -25 c0 -2 -9 -4 -21 -4 -11 0 -18 4 -14 10 5
8 35 3 35 -6z"/>
<path d="M12 230 c0 -14 2 -19 5 -12 2 6 2 18 0 25 -3 6 -5 1 -5 -13z"/>
<path d="M60 240 c8 -5 20 -10 25 -10 6 0 3 5 -5 10 -8 5 -19 10 -25 10 -5 0
-3 -5 5 -10z"/>
<path d="M30 228 c0 -21 22 -49 57 -73 l37 -25 24 23 c16 15 41 24 80 28 55 6
54 6 -24 8 -63 1 -91 6 -127 25 -26 13 -47 19 -47 14z"/>
<path d="M11 189 c0 -8 14 -25 32 -38 l32 -25 -30 35 c-17 18 -31 36 -32 38
-2 2 -3 -2 -2 -10z"/>
<path d="M271 174 c-66 -15 -81 -28 -59 -50 12 -12 26 -14 62 -9 48 8 60 19
54 52 -3 17 -7 18 -57 7z"/>
<path d="M100 117 c0 -3 12 -12 26 -22 15 -9 23 -12 20 -6 -7 11 -46 35 -46
28z"/>
<path d="M480 46 c0 -2 7 -7 16 -10 8 -3 12 -2 9 4 -6 10 -25 14 -25 6z"/>
</g>
</svg>
